<mxfile host="app.diagrams.net" modified="2021-09-06T02:54:20.659Z" agent="5.0 (Macintosh; Intel Mac OS X 10_15_7) AppleWebKit/537.36 (KHTML, like Gecko) Chrome/92.0.4515.107 Safari/537.36" etag="XMTlrixdns-B9DUqH3uT" version="15.0.3" type="github">
  <diagram id="Y5zKVeenrjIp9ViCrTig" name="Page-1">
    <mxGraphModel dx="1979" dy="1129" grid="1" gridSize="10" guides="1" tooltips="1" connect="1" arrows="1" fold="1" page="1" pageScale="1" pageWidth="827" pageHeight="1169" math="0" shadow="0">
      <root>
        <mxCell id="0" />
        <mxCell id="1" parent="0" />
        <mxCell id="EyXUE4arEJzkDvmP5hSu-12" value="" style="rounded=0;whiteSpace=wrap;html=1;fillColor=#1ba1e2;strokeColor=#006EAF;fontColor=#ffffff;" vertex="1" parent="1">
          <mxGeometry x="820" y="235" width="300" height="160" as="geometry" />
        </mxCell>
        <mxCell id="EyXUE4arEJzkDvmP5hSu-4" style="edgeStyle=orthogonalEdgeStyle;rounded=0;orthogonalLoop=1;jettySize=auto;html=1;" edge="1" parent="1" source="EyXUE4arEJzkDvmP5hSu-1">
          <mxGeometry relative="1" as="geometry">
            <mxPoint x="530" y="315" as="targetPoint" />
          </mxGeometry>
        </mxCell>
        <mxCell id="EyXUE4arEJzkDvmP5hSu-1" value="&lt;b&gt;&lt;font style=&quot;font-size: 16px&quot;&gt;列表&lt;/font&gt;&lt;/b&gt;&lt;br&gt;&lt;font style=&quot;font-size: 11px&quot;&gt;UITableView/UICollectionView&lt;/font&gt;" style="rounded=1;whiteSpace=wrap;html=1;fillColor=#6d8764;strokeColor=#3A5431;fontColor=#ffffff;" vertex="1" parent="1">
          <mxGeometry x="180" y="270" width="190" height="90" as="geometry" />
        </mxCell>
        <mxCell id="EyXUE4arEJzkDvmP5hSu-13" style="edgeStyle=orthogonalEdgeStyle;rounded=0;orthogonalLoop=1;jettySize=auto;html=1;entryX=0;entryY=0.5;entryDx=0;entryDy=0;fillColor=#1ba1e2;strokeColor=#006EAF;strokeWidth=2;" edge="1" parent="1" target="EyXUE4arEJzkDvmP5hSu-12">
          <mxGeometry relative="1" as="geometry">
            <mxPoint x="620" y="315" as="sourcePoint" />
          </mxGeometry>
        </mxCell>
        <mxCell id="EyXUE4arEJzkDvmP5hSu-5" value="ViewController(delegate Object)" style="swimlane;fontStyle=0;childLayout=stackLayout;horizontal=1;startSize=26;horizontalStack=0;resizeParent=1;resizeParentMax=0;resizeLast=0;collapsible=1;marginBottom=0;fillColor=#1ba1e2;strokeColor=#006EAF;fontColor=#ffffff;" vertex="1" parent="1">
          <mxGeometry x="830" y="245" width="280" height="110" as="geometry" />
        </mxCell>
        <mxCell id="EyXUE4arEJzkDvmP5hSu-6" value="scrollView:didScroll:" style="text;strokeColor=#006EAF;fillColor=#1ba1e2;align=left;verticalAlign=top;spacingLeft=4;spacingRight=4;overflow=hidden;rotatable=0;points=[[0,0.5],[1,0.5]];portConstraint=eastwest;fontColor=#ffffff;" vertex="1" parent="EyXUE4arEJzkDvmP5hSu-5">
          <mxGeometry y="26" width="280" height="26" as="geometry" />
        </mxCell>
        <mxCell id="EyXUE4arEJzkDvmP5hSu-7" value="tableView:didSelectRowAtIndexPath:" style="text;strokeColor=#006EAF;fillColor=#1ba1e2;align=left;verticalAlign=top;spacingLeft=4;spacingRight=4;overflow=hidden;rotatable=0;points=[[0,0.5],[1,0.5]];portConstraint=eastwest;fontColor=#ffffff;" vertex="1" parent="EyXUE4arEJzkDvmP5hSu-5">
          <mxGeometry y="52" width="280" height="26" as="geometry" />
        </mxCell>
        <mxCell id="EyXUE4arEJzkDvmP5hSu-8" value="collectionView:didSelectItemAtIndexPath:" style="text;strokeColor=#006EAF;fillColor=#1ba1e2;align=left;verticalAlign=top;spacingLeft=4;spacingRight=4;overflow=hidden;rotatable=0;points=[[0,0.5],[1,0.5]];portConstraint=eastwest;fontColor=#ffffff;" vertex="1" parent="EyXUE4arEJzkDvmP5hSu-5">
          <mxGeometry y="78" width="280" height="32" as="geometry" />
        </mxCell>
        <mxCell id="EyXUE4arEJzkDvmP5hSu-10" value="... （UIScrollViewDelegate以及子Protocol的方法）" style="text;strokeColor=#006EAF;fillColor=#1ba1e2;align=left;verticalAlign=top;spacingLeft=4;spacingRight=4;overflow=hidden;rotatable=0;points=[[0,0.5],[1,0.5]];portConstraint=eastwest;fontColor=#ffffff;" vertex="1" parent="1">
          <mxGeometry x="830" y="355" width="280" height="32" as="geometry" />
        </mxCell>
        <mxCell id="EyXUE4arEJzkDvmP5hSu-38" style="edgeStyle=orthogonalEdgeStyle;rounded=0;orthogonalLoop=1;jettySize=auto;html=1;exitX=0.25;exitY=0;exitDx=0;exitDy=0;fillColor=#0050ef;strokeColor=#001DBC;strokeWidth=2;" edge="1" parent="1" source="EyXUE4arEJzkDvmP5hSu-15">
          <mxGeometry relative="1" as="geometry">
            <mxPoint x="370" y="350" as="targetPoint" />
            <Array as="points">
              <mxPoint x="518" y="350" />
            </Array>
          </mxGeometry>
        </mxCell>
        <mxCell id="EyXUE4arEJzkDvmP5hSu-39" value="替换" style="edgeLabel;html=1;align=center;verticalAlign=middle;resizable=0;points=[];" vertex="1" connectable="0" parent="EyXUE4arEJzkDvmP5hSu-38">
          <mxGeometry x="-0.3248" y="1" relative="1" as="geometry">
            <mxPoint x="1" as="offset" />
          </mxGeometry>
        </mxCell>
        <mxCell id="EyXUE4arEJzkDvmP5hSu-15" value="Delegate =&gt; Proxy" style="swimlane;" vertex="1" parent="1">
          <mxGeometry x="460" y="475" width="230" height="110" as="geometry">
            <mxRectangle x="460" y="475" width="140" height="23" as="alternateBounds" />
          </mxGeometry>
        </mxCell>
        <mxCell id="EyXUE4arEJzkDvmP5hSu-24" value="Original Delegate (weak)" style="text;strokeColor=#006EAF;fillColor=#1ba1e2;align=left;verticalAlign=top;spacingLeft=4;spacingRight=4;overflow=hidden;rotatable=0;points=[[0,0.5],[1,0.5]];portConstraint=eastwest;fontColor=#ffffff;" vertex="1" parent="EyXUE4arEJzkDvmP5hSu-15">
          <mxGeometry y="23" width="230" height="32" as="geometry" />
        </mxCell>
        <mxCell id="EyXUE4arEJzkDvmP5hSu-25" value="Interceptors: &#xa;  -&gt; interceptor_0:&#xa;  -&gt; interceptor_1:" style="text;strokeColor=#3700CC;fillColor=#6a00ff;align=left;verticalAlign=top;spacingLeft=4;spacingRight=4;overflow=hidden;rotatable=0;points=[[0,0.5],[1,0.5]];portConstraint=eastwest;fontColor=#ffffff;" vertex="1" parent="EyXUE4arEJzkDvmP5hSu-15">
          <mxGeometry y="55" width="230" height="55" as="geometry" />
        </mxCell>
        <mxCell id="EyXUE4arEJzkDvmP5hSu-26" style="edgeStyle=orthogonalEdgeStyle;rounded=0;orthogonalLoop=1;jettySize=auto;html=1;fillColor=#1ba1e2;strokeColor=#006EAF;" edge="1" parent="1" source="EyXUE4arEJzkDvmP5hSu-20" target="EyXUE4arEJzkDvmP5hSu-15">
          <mxGeometry relative="1" as="geometry" />
        </mxCell>
        <mxCell id="EyXUE4arEJzkDvmP5hSu-27" value="包装" style="edgeLabel;html=1;align=center;verticalAlign=middle;resizable=0;points=[];" vertex="1" connectable="0" parent="EyXUE4arEJzkDvmP5hSu-26">
          <mxGeometry x="0.0429" y="4" relative="1" as="geometry">
            <mxPoint as="offset" />
          </mxGeometry>
        </mxCell>
        <mxCell id="EyXUE4arEJzkDvmP5hSu-20" value="delegate" style="rounded=0;whiteSpace=wrap;html=1;fillColor=#1ba1e2;strokeColor=#006EAF;fontColor=#ffffff;" vertex="1" parent="1">
          <mxGeometry x="530" y="295" width="90" height="40" as="geometry" />
        </mxCell>
        <mxCell id="EyXUE4arEJzkDvmP5hSu-28" style="edgeStyle=orthogonalEdgeStyle;rounded=0;orthogonalLoop=1;jettySize=auto;html=1;fillColor=#1ba1e2;strokeColor=#006EAF;strokeWidth=2;" edge="1" parent="1" source="EyXUE4arEJzkDvmP5hSu-24" target="EyXUE4arEJzkDvmP5hSu-12">
          <mxGeometry relative="1" as="geometry" />
        </mxCell>
        <mxCell id="EyXUE4arEJzkDvmP5hSu-29" value="调用原始的selector" style="edgeLabel;html=1;align=center;verticalAlign=middle;resizable=0;points=[];" vertex="1" connectable="0" parent="EyXUE4arEJzkDvmP5hSu-28">
          <mxGeometry x="0.0827" y="1" relative="1" as="geometry">
            <mxPoint as="offset" />
          </mxGeometry>
        </mxCell>
        <mxCell id="EyXUE4arEJzkDvmP5hSu-30" value="" style="rounded=0;whiteSpace=wrap;html=1;fillColor=#6a00ff;strokeColor=#3700CC;fontColor=#ffffff;" vertex="1" parent="1">
          <mxGeometry x="827" y="630" width="300" height="160" as="geometry" />
        </mxCell>
        <mxCell id="EyXUE4arEJzkDvmP5hSu-31" value="AOP Handler" style="swimlane;fontStyle=0;childLayout=stackLayout;horizontal=1;startSize=26;horizontalStack=0;resizeParent=1;resizeParentMax=0;resizeLast=0;collapsible=1;marginBottom=0;fillColor=#6a00ff;strokeColor=#3700CC;fontColor=#ffffff;" vertex="1" parent="1">
          <mxGeometry x="837" y="640" width="280" height="110" as="geometry" />
        </mxCell>
        <mxCell id="EyXUE4arEJzkDvmP5hSu-32" value="scrollView:didScroll:" style="text;strokeColor=#3700CC;fillColor=#6a00ff;align=left;verticalAlign=top;spacingLeft=4;spacingRight=4;overflow=hidden;rotatable=0;points=[[0,0.5],[1,0.5]];portConstraint=eastwest;fontColor=#ffffff;" vertex="1" parent="EyXUE4arEJzkDvmP5hSu-31">
          <mxGeometry y="26" width="280" height="26" as="geometry" />
        </mxCell>
        <mxCell id="EyXUE4arEJzkDvmP5hSu-33" value="tableView:didSelectRowAtIndexPath:" style="text;strokeColor=#3700CC;fillColor=#6a00ff;align=left;verticalAlign=top;spacingLeft=4;spacingRight=4;overflow=hidden;rotatable=0;points=[[0,0.5],[1,0.5]];portConstraint=eastwest;fontColor=#ffffff;" vertex="1" parent="EyXUE4arEJzkDvmP5hSu-31">
          <mxGeometry y="52" width="280" height="26" as="geometry" />
        </mxCell>
        <mxCell id="EyXUE4arEJzkDvmP5hSu-34" value="collectionView:didSelectItemAtIndexPath:" style="text;strokeColor=#3700CC;fillColor=#6a00ff;align=left;verticalAlign=top;spacingLeft=4;spacingRight=4;overflow=hidden;rotatable=0;points=[[0,0.5],[1,0.5]];portConstraint=eastwest;fontColor=#ffffff;" vertex="1" parent="EyXUE4arEJzkDvmP5hSu-31">
          <mxGeometry y="78" width="280" height="32" as="geometry" />
        </mxCell>
        <mxCell id="EyXUE4arEJzkDvmP5hSu-35" value="... （UIScrollViewDelegate以及子Protocol的方法）" style="text;strokeColor=#3700CC;fillColor=#6a00ff;align=left;verticalAlign=top;spacingLeft=4;spacingRight=4;overflow=hidden;rotatable=0;points=[[0,0.5],[1,0.5]];portConstraint=eastwest;fontColor=#ffffff;" vertex="1" parent="1">
          <mxGeometry x="837" y="750" width="280" height="32" as="geometry" />
        </mxCell>
        <mxCell id="EyXUE4arEJzkDvmP5hSu-36" style="edgeStyle=orthogonalEdgeStyle;rounded=0;orthogonalLoop=1;jettySize=auto;html=1;fillColor=#0050ef;strokeColor=#001DBC;strokeWidth=2;" edge="1" parent="1" source="EyXUE4arEJzkDvmP5hSu-25" target="EyXUE4arEJzkDvmP5hSu-30">
          <mxGeometry relative="1" as="geometry" />
        </mxCell>
        <mxCell id="EyXUE4arEJzkDvmP5hSu-45" style="edgeStyle=orthogonalEdgeStyle;rounded=0;orthogonalLoop=1;jettySize=auto;html=1;strokeWidth=2;fillColor=#1ba1e2;strokeColor=#006EAF;" edge="1" parent="1" source="EyXUE4arEJzkDvmP5hSu-42" target="EyXUE4arEJzkDvmP5hSu-43">
          <mxGeometry relative="1" as="geometry" />
        </mxCell>
        <mxCell id="EyXUE4arEJzkDvmP5hSu-42" value="delegate" style="rounded=0;whiteSpace=wrap;html=1;fillColor=#1ba1e2;strokeColor=#006EAF;fontColor=#ffffff;" vertex="1" parent="1">
          <mxGeometry x="180" y="990" width="90" height="40" as="geometry" />
        </mxCell>
        <mxCell id="EyXUE4arEJzkDvmP5hSu-55" style="edgeStyle=orthogonalEdgeStyle;rounded=0;orthogonalLoop=1;jettySize=auto;html=1;fontSize=15;fontColor=#FFFFFF;strokeWidth=2;fillColor=#6a00ff;strokeColor=#3700CC;" edge="1" parent="1" source="EyXUE4arEJzkDvmP5hSu-43" target="EyXUE4arEJzkDvmP5hSu-50">
          <mxGeometry relative="1" as="geometry" />
        </mxCell>
        <mxCell id="EyXUE4arEJzkDvmP5hSu-43" value="" style="rounded=0;whiteSpace=wrap;html=1;fillColor=#0050ef;strokeColor=#001DBC;fontColor=#ffffff;" vertex="1" parent="1">
          <mxGeometry x="400" y="970" width="200" height="80" as="geometry" />
        </mxCell>
        <mxCell id="EyXUE4arEJzkDvmP5hSu-44" value="delegate" style="rounded=0;whiteSpace=wrap;html=1;fillColor=#1ba1e2;strokeColor=#006EAF;fontColor=#ffffff;" vertex="1" parent="1">
          <mxGeometry x="510" y="1010" width="90" height="40" as="geometry" />
        </mxCell>
        <mxCell id="EyXUE4arEJzkDvmP5hSu-46" value="Interceptor_0" style="text;html=1;strokeColor=none;fillColor=none;align=left;verticalAlign=middle;whiteSpace=wrap;rounded=0;fontColor=#FFFFFF;fontStyle=1;fontSize=15;" vertex="1" parent="1">
          <mxGeometry x="400" y="974" width="120" height="26" as="geometry" />
        </mxCell>
        <mxCell id="EyXUE4arEJzkDvmP5hSu-68" style="edgeStyle=orthogonalEdgeStyle;rounded=0;orthogonalLoop=1;jettySize=auto;html=1;fontSize=15;fontColor=#FFFFFF;strokeWidth=2;" edge="1" parent="1" source="EyXUE4arEJzkDvmP5hSu-50" target="EyXUE4arEJzkDvmP5hSu-61">
          <mxGeometry relative="1" as="geometry" />
        </mxCell>
        <mxCell id="EyXUE4arEJzkDvmP5hSu-50" value="" style="rounded=0;whiteSpace=wrap;html=1;fillColor=#6a00ff;strokeColor=#3700CC;fontColor=#ffffff;" vertex="1" parent="1">
          <mxGeometry x="720" y="942.5" width="330" height="135" as="geometry" />
        </mxCell>
        <mxCell id="EyXUE4arEJzkDvmP5hSu-51" value="" style="rounded=0;whiteSpace=wrap;html=1;fillColor=#0050ef;strokeColor=#001DBC;fontColor=#ffffff;" vertex="1" parent="1">
          <mxGeometry x="840" y="997.5" width="200" height="80" as="geometry" />
        </mxCell>
        <mxCell id="EyXUE4arEJzkDvmP5hSu-52" value="delegate" style="rounded=0;whiteSpace=wrap;html=1;fillColor=#1ba1e2;strokeColor=#006EAF;fontColor=#ffffff;" vertex="1" parent="1">
          <mxGeometry x="950" y="1037.5" width="90" height="40" as="geometry" />
        </mxCell>
        <mxCell id="EyXUE4arEJzkDvmP5hSu-53" value="Interceptor_0" style="text;html=1;strokeColor=none;fillColor=none;align=left;verticalAlign=middle;whiteSpace=wrap;rounded=0;fontColor=#FFFFFF;fontStyle=1;fontSize=15;" vertex="1" parent="1">
          <mxGeometry x="840" y="1001.5" width="120" height="26" as="geometry" />
        </mxCell>
        <mxCell id="EyXUE4arEJzkDvmP5hSu-54" value="Interceptor_1" style="text;html=1;strokeColor=none;fillColor=none;align=left;verticalAlign=middle;whiteSpace=wrap;rounded=0;fontColor=#FFFFFF;fontStyle=1;fontSize=15;" vertex="1" parent="1">
          <mxGeometry x="730" y="956.5" width="120" height="26" as="geometry" />
        </mxCell>
        <mxCell id="EyXUE4arEJzkDvmP5hSu-61" value="" style="rounded=0;whiteSpace=wrap;html=1;fillColor=#647687;strokeColor=#314354;fontColor=#ffffff;" vertex="1" parent="1">
          <mxGeometry x="1160" y="905" width="500" height="210" as="geometry" />
        </mxCell>
        <mxCell id="EyXUE4arEJzkDvmP5hSu-62" value="" style="rounded=0;whiteSpace=wrap;html=1;fillColor=#6a00ff;strokeColor=#3700CC;fontColor=#ffffff;" vertex="1" parent="1">
          <mxGeometry x="1330" y="980" width="330" height="135" as="geometry" />
        </mxCell>
        <mxCell id="EyXUE4arEJzkDvmP5hSu-63" value="" style="rounded=0;whiteSpace=wrap;html=1;fillColor=#0050ef;strokeColor=#001DBC;fontColor=#ffffff;" vertex="1" parent="1">
          <mxGeometry x="1450" y="1035" width="200" height="80" as="geometry" />
        </mxCell>
        <mxCell id="EyXUE4arEJzkDvmP5hSu-64" value="delegate" style="rounded=0;whiteSpace=wrap;html=1;fillColor=#1ba1e2;strokeColor=#006EAF;fontColor=#ffffff;" vertex="1" parent="1">
          <mxGeometry x="1560" y="1075" width="90" height="40" as="geometry" />
        </mxCell>
        <mxCell id="EyXUE4arEJzkDvmP5hSu-65" value="Interceptor_0" style="text;html=1;strokeColor=none;fillColor=none;align=left;verticalAlign=middle;whiteSpace=wrap;rounded=0;fontColor=#FFFFFF;fontStyle=1;fontSize=15;" vertex="1" parent="1">
          <mxGeometry x="1450" y="1039" width="120" height="26" as="geometry" />
        </mxCell>
        <mxCell id="EyXUE4arEJzkDvmP5hSu-66" value="Interceptor_1" style="text;html=1;strokeColor=none;fillColor=none;align=left;verticalAlign=middle;whiteSpace=wrap;rounded=0;fontColor=#FFFFFF;fontStyle=1;fontSize=15;" vertex="1" parent="1">
          <mxGeometry x="1340" y="994" width="120" height="26" as="geometry" />
        </mxCell>
        <mxCell id="EyXUE4arEJzkDvmP5hSu-67" value="Interceptor_2" style="text;html=1;strokeColor=none;fillColor=none;align=left;verticalAlign=middle;whiteSpace=wrap;rounded=0;fontColor=#FFFFFF;fontStyle=1;fontSize=15;" vertex="1" parent="1">
          <mxGeometry x="1170" y="916.5" width="120" height="26" as="geometry" />
        </mxCell>
        <mxCell id="EyXUE4arEJzkDvmP5hSu-70" value="Delegate =&gt; Proxy" style="swimlane;" vertex="1" parent="1">
          <mxGeometry x="980" y="1282" width="230" height="110" as="geometry">
            <mxRectangle x="460" y="475" width="140" height="23" as="alternateBounds" />
          </mxGeometry>
        </mxCell>
        <mxCell id="EyXUE4arEJzkDvmP5hSu-71" value="Original Delegate (weak)" style="text;strokeColor=#006EAF;fillColor=#1ba1e2;align=left;verticalAlign=top;spacingLeft=4;spacingRight=4;overflow=hidden;rotatable=0;points=[[0,0.5],[1,0.5]];portConstraint=eastwest;fontColor=#ffffff;" vertex="1" parent="EyXUE4arEJzkDvmP5hSu-70">
          <mxGeometry y="23" width="230" height="32" as="geometry" />
        </mxCell>
        <mxCell id="EyXUE4arEJzkDvmP5hSu-72" value="Interceptors: &#xa;  -&gt; interceptor_0:&#xa;  -&gt; interceptor_1:" style="text;strokeColor=#3700CC;fillColor=#6a00ff;align=left;verticalAlign=top;spacingLeft=4;spacingRight=4;overflow=hidden;rotatable=0;points=[[0,0.5],[1,0.5]];portConstraint=eastwest;fontColor=#ffffff;" vertex="1" parent="EyXUE4arEJzkDvmP5hSu-70">
          <mxGeometry y="55" width="230" height="55" as="geometry" />
        </mxCell>
        <mxCell id="EyXUE4arEJzkDvmP5hSu-76" style="edgeStyle=orthogonalEdgeStyle;rounded=0;orthogonalLoop=1;jettySize=auto;html=1;fontSize=15;fontColor=#FFFFFF;strokeWidth=2;" edge="1" parent="1" source="EyXUE4arEJzkDvmP5hSu-74" target="EyXUE4arEJzkDvmP5hSu-75">
          <mxGeometry relative="1" as="geometry" />
        </mxCell>
        <mxCell id="EyXUE4arEJzkDvmP5hSu-74" value="setDelegate: 调用" style="rounded=1;whiteSpace=wrap;html=1;fontSize=15;align=center;fillColor=#bac8d3;strokeColor=#23445d;" vertex="1" parent="1">
          <mxGeometry x="160" y="1305" width="150" height="60" as="geometry" />
        </mxCell>
        <mxCell id="EyXUE4arEJzkDvmP5hSu-77" style="edgeStyle=orthogonalEdgeStyle;rounded=0;orthogonalLoop=1;jettySize=auto;html=1;entryX=-0.009;entryY=0.938;entryDx=0;entryDy=0;entryPerimeter=0;fontSize=15;fontColor=#FFFFFF;strokeWidth=2;fillColor=#0050ef;strokeColor=#001DBC;startArrow=none;" edge="1" parent="1" source="EyXUE4arEJzkDvmP5hSu-79" target="EyXUE4arEJzkDvmP5hSu-71">
          <mxGeometry relative="1" as="geometry" />
        </mxCell>
        <mxCell id="EyXUE4arEJzkDvmP5hSu-75" value="delegate" style="rounded=0;whiteSpace=wrap;html=1;fillColor=#1ba1e2;strokeColor=#006EAF;fontColor=#ffffff;" vertex="1" parent="1">
          <mxGeometry x="430" y="1315" width="90" height="40" as="geometry" />
        </mxCell>
        <mxCell id="EyXUE4arEJzkDvmP5hSu-79" value="" style="triangle;whiteSpace=wrap;html=1;fontSize=15;fontColor=#FFFFFF;align=center;" vertex="1" parent="1">
          <mxGeometry x="730" y="1295" width="60" height="80" as="geometry" />
        </mxCell>
        <mxCell id="EyXUE4arEJzkDvmP5hSu-80" value="" style="edgeStyle=orthogonalEdgeStyle;rounded=0;orthogonalLoop=1;jettySize=auto;html=1;fontSize=15;fontColor=#FFFFFF;strokeWidth=2;fillColor=#0050ef;strokeColor=#001DBC;endArrow=none;" edge="1" parent="1" source="EyXUE4arEJzkDvmP5hSu-75" target="EyXUE4arEJzkDvmP5hSu-79">
          <mxGeometry relative="1" as="geometry">
            <mxPoint x="520" y="1335.016" as="sourcePoint" />
            <mxPoint x="977.9299999999998" y="1335.016" as="targetPoint" />
          </mxGeometry>
        </mxCell>
        <mxCell id="EyXUE4arEJzkDvmP5hSu-81" value="&lt;font color=&quot;#000000&quot;&gt;是否包装？&lt;/font&gt;" style="edgeLabel;html=1;align=center;verticalAlign=middle;resizable=0;points=[];fontSize=15;fontColor=#FFFFFF;" vertex="1" connectable="0" parent="EyXUE4arEJzkDvmP5hSu-80">
          <mxGeometry x="-0.1233" y="-2" relative="1" as="geometry">
            <mxPoint x="2" y="-2" as="offset" />
          </mxGeometry>
        </mxCell>
      </root>
    </mxGraphModel>
  </diagram>
</mxfile>
